HIERARCHY
ROOT Hips
{
	OFFSET 0.000000 0.000000 0.000000
	CHANNELS 6 Xposition Yposition Zposition Zrotation Yrotation Xrotation 
	JOINT LeftUpLeg
	{
		OFFSET 1.363060 -1.794630 0.839290
		CHANNELS 3 Zrotation Yrotation Xrotation
		JOINT LeftLeg
		{
			OFFSET 2.448110 -6.726130 0.000000
			CHANNELS 3 Zrotation Yrotation Xrotation
			JOINT LeftFoot
			{
				OFFSET 2.562200 -7.039590 0.000000
				CHANNELS 3 Zrotation Yrotation Xrotation
				JOINT LeftToeBase
				{
					OFFSET 0.157640 -0.433110 2.322550
					CHANNELS 3 Zrotation Yrotation Xrotation
				}
			}
		}
	}
	JOINT RightUpLeg
	{
		OFFSET -1.305520 -1.794630 0.839290
		CHANNELS 3 Zrotation Yrotation Xrotation
		JOINT RightLeg
		{
			OFFSET -2.542530 -6.985550 0.000000
			CHANNELS 3 Zrotation Yrotation Xrotation
			JOINT RightFoot
			{
				OFFSET -2.568260 -7.056230 0.000000
				CHANNELS 3 Zrotation Yrotation Xrotation
				JOINT RightToeBase
				{
					OFFSET -0.164730 -0.452590 2.363150
					CHANNELS 3 Zrotation Yrotation Xrotation
				}
			}
		}
	}
	JOINT Spine
	{
		OFFSET 0.028270 2.035590 -0.193380
		CHANNELS 3 Zrotation Yrotation Xrotation
		JOINT Spine1
		{
			OFFSET 0.056720 2.048850 -0.042750
			CHANNELS 3 Zrotation Yrotation Xrotation
			JOINT Neck1
			{
				OFFSET -0.054170 1.746240 0.172020
				CHANNELS 3 Zrotation Yrotation Xrotation
				JOINT Head
				{
					OFFSET 0.104070 1.761360 -0.123970
					CHANNELS 3 Zrotation Yrotation Xrotation
				}
			}
			JOINT LeftArm
			{
				OFFSET 3.362410 1.200890 -0.311210
				CHANNELS 3 Zrotation Yrotation Xrotation
				JOINT LeftForeArm
				{
					OFFSET 4.983000 -0.000000 -0.000000
					CHANNELS 3 Zrotation Yrotation Xrotation
					JOINT LeftHand
					{
						OFFSET 3.483560 -0.000000 -0.000000
						CHANNELS 3 Zrotation Yrotation Xrotation
						JOINT LeftHandIndex1
						{
							OFFSET 0.715260 -0.000000 -0.000000
							CHANNELS 3 Zrotation Yrotation Xrotation
						}
					}
				}
			}
			JOINT RightArm
			{
				OFFSET -3.136600 1.374050 -0.404650
				CHANNELS 3 Zrotation Yrotation Xrotation
				JOINT RightForeArm
				{
					OFFSET -5.241900 -0.000000 -0.000000
					CHANNELS 3 Zrotation Yrotation Xrotation
					JOINT RightHand
					{
						OFFSET -3.444170 -0.000000 -0.000000
						CHANNELS 3 Zrotation Yrotation Xrotation
						JOINT RightHandIndex1
						{
							OFFSET -0.622530 -0.000000 -0.000000
							CHANNELS 3 Zrotation Yrotation Xrotation
						}
					}
				}
			}
		}
	}
}
MOTION
Frames: 15
Frame Time: 0.016667
0.000153 15.810473 0.016806 -1.488014 0.279308 17.124128 -23.855482 -11.263102 -17.410926 8.957736 11.488484 42.398046 0.384432 -13.889395 -17.064720 -0.496357 -0.061413 2.407961 22.257335 15.517490 -42.425064 -4.022338 -7.563754 23.861087 0.275521 -0.428937 -14.762588 -1.744550 -5.690768 21.558597 5.555149 -3.778838 12.477527 1.373218 1.474596 -2.170060 -0.231963 -9.807948 9.948766 0.487397 -1.048358 11.128365 -98.494991 -6.247360 15.802661 36.806052 -42.595515 -12.284473 1.491104 2.117133 4.086321 6.060817 35.747188 0.447337 91.767131 7.241173 9.978469 -21.790643 30.026820 -0.947822 -2.748141 1.044239 -3.493460 -22.986547 17.096258 -4.672263 
0.010047 15.746358 0.422053 -1.914578 0.130002 17.321234 -23.550087 -11.295428 -17.676368 8.968637 12.118313 42.318712 0.506805 -13.974827 -16.990639 -0.471798 -0.049202 2.136267 22.729519 15.885553 -42.530083 -4.665323 -8.374959 26.839790 -0.154213 0.750148 -18.312803 -1.767866 -5.750053 21.644544 5.910298 -3.595606 12.417401 1.220393 1.748845 -2.275239 -0.250128 -9.833276 9.843091 0.519334 -1.014163 11.165060 -98.514002 -6.140995 15.847471 36.971415 -42.687470 -12.300772 1.535537 2.364455 4.252914 5.983460 35.504207 0.739010 91.861009 7.292586 9.941932 -21.772934 29.726969 -1.153610 -2.663710 0.996198 -3.174432 -22.965857 16.900296 -4.851276 
0.028422 15.707732 0.978105 -2.142286 -0.093493 17.387056 -23.151550 -11.180097 -18.028050 8.978403 12.707410 42.556626 0.486841 -14.020946 -16.380956 -0.239312 -0.101089 2.023184 23.136683 16.463023 -41.990959 -6.059647 -9.420292 30.239167 -0.353687 2.076966 -22.107127 -2.081526 -5.785094 21.659906 6.297920 -3.314250 12.336282 1.050211 1.800085 -2.182911 -0.275932 -9.771322 9.889860 0.544211 -0.990347 11.048003 -98.779666 -6.192477 15.679640 36.887635 -42.345445 -11.943391 1.537442 2.339885 4.334580 6.021596 35.294831 0.761723 91.772730 7.676212 10.087939 -21.648418 29.497870 -1.058182 -2.569715 0.863071 -3.253778 -23.058304 17.092791 -4.690628 
0.046014 15.701822 1.604585 -2.488843 0.122958 17.386457 -22.573070 -11.265245 -19.281679 8.934229 13.738338 43.878954 0.893397 -13.565222 -15.730167 -0.643713 0.154680 2.140112 23.700052 16.468676 -41.051866 -7.066312 -10.417103 33.371871 -0.635465 3.029622 -25.372026 -1.787483 -5.606658 21.306344 6.896188 -3.271780 12.492559 0.853523 1.804252 -2.171660 -0.211353 -9.762476 9.708908 0.545638 -1.004139 10.953763 -98.855202 -6.141368 15.550323 36.738260 -41.908957 -11.816471 1.833307 2.213074 4.540687 5.889896 34.767678 0.969266 91.799932 8.284734 10.151355 -21.623296 29.232222 -1.073602 -2.675039 0.756779 -3.006436 -22.984196 16.987883 -4.705587 
0.069291 15.688904 2.289630 -2.790847 0.300861 17.334235 -21.665721 -11.608665 -21.504238 9.104104 15.597790 46.316255 1.412716 -13.640419 -13.931365 -1.579157 1.237208 1.632748 24.385598 16.134508 -39.713742 -7.714835 -10.858032 36.387073 -1.008823 3.556919 -28.699357 -1.896351 -5.318655 21.147357 7.600744 -3.248071 12.608238 0.627425 1.844601 -2.089212 -0.143715 -9.710178 9.628426 0.530563 -1.019948 10.819028 -99.156285 -6.124592 15.320928 36.267498 -41.385247 -11.305974 2.011124 2.061018 4.910287 5.988775 34.393664 0.983430 91.784046 9.086612 10.438515 -21.646083 28.951917 -1.057205 -2.623781 0.386313 -3.000354 -23.218499 17.150108 -4.572066 
0.087694 15.682530 2.989182 -3.015639 0.697666 17.273459 -20.583673 -12.151892 -24.798362 10.120476 16.824298 49.915816 0.970375 -13.142202 -11.354798 -1.286444 2.231222 1.245867 25.116361 15.350003 -38.212702 -8.256486 -11.266714 38.966740 -1.359304 4.028491 -31.378790 -1.714301 -5.064499 20.786128 8.119083 -3.346715 12.990336 0.544284 1.870073 -2.187460 -0.101226 -9.682095 9.568089 0.652108 -1.007035 10.645339 -99.461119 -6.038329 14.977647 35.670772 -40.554289 -10.675231 2.320283 1.809858 5.261801 5.973217 33.698848 1.034730 91.743779 9.972475 10.688780 -21.637789 28.571012 -1.109725 -2.694768 0.205526 -2.815864 -23.243715 17.212911 -4.527026 
0.103947 15.675593 3.702401 -3.285712 0.928353 17.086463 -18.588857 -12.903748 -28.701671 10.767629 18.247116 54.689911 0.301979 -11.202403 -9.461902 -1.308124 2.914951 1.593002 25.708239 14.885035 -36.177766 -8.517207 -11.794273 41.090272 -1.915124 3.930282 -33.607597 -1.638346 -4.641545 20.366986 8.648572 -3.212783 13.294393 0.489707 1.853340 -2.140998 -0.156055 -9.610728 9.485214 0.634377 -1.019168 10.502150 -99.951738 -6.028757 14.437485 34.712177 -39.585833 -9.906335 2.630540 1.573788 5.876598 5.945097 33.322816 1.103568 91.598481 11.027536 11.029077 -21.622600 28.076629 -1.117482 -2.700388 -0.048138 -2.682609 -23.425009 16.983429 -4.440152 
0.104868 15.676882 4.440819 -3.584705 1.332634 16.847533 -16.671624 -13.849822 -32.295155 11.945573 19.105911 59.605998 -0.080331 -8.330306 -8.617972 -1.275237 2.723217 2.534288 26.472881 13.774743 -34.023101 -8.564018 -12.377495 42.814914 -2.266535 4.079390 -34.957046 -1.592518 -4.401442 19.880955 9.058934 -3.141516 13.720801 0.524651 1.853194 -2.161794 -0.248281 -9.542437 9.561947 0.786564 -0.982121 10.245293 -100.367247 -6.128404 13.703076 33.539438 -38.326343 -9.017756 2.605617 1.508473 6.624726 6.107197 32.715521 0.939865 91.532844 12.170741 11.437190 -21.671058 27.699291 -1.301223 -2.949410 -0.142250 -2.743024 -23.379909 16.816570 -4.357989 
0.100629 15.678197 5.186970 -3.721961 1.628287 16.628638 -15.100826 -14.587241 -36.112514 12.636269 19.360832 64.165827 0.247087 -6.199929 -9.354975 -1.253766 2.736085 4.096232 27.044856 12.857297 -31.536488 -8.579250 -12.907374 43.976143 -2.795649 3.805624 -35.883963 -1.416832 -4.193201 19.538951 9.346777 -2.931731 13.952370 0.661503 1.805594 -2.127214 -0.353757 -9.392204 9.533624 0.752789 -1.018934 10.123847 -100.938593 -6.024483 12.952475 32.259395 -37.288773 -8.115529 2.718068 1.606991 7.363035 5.898576 32.664853 0.801230 91.215108 13.124767 11.899075 -21.780128 27.344588 -1.382004 -2.984245 -0.016881 -2.660466 -23.488592 16.079558 -4.452882 
0.095871 15.672732 5.952000 -3.789724 2.052511 16.336556 -13.825242 -15.327155 -39.359188 13.284306 19.335313 67.230109 0.752350 -5.520385 -10.584682 -1.468208 3.287190 4.718285 27.635671 11.712815 -28.820203 -8.582289 -13.337772 44.775570 -3.023707 3.440669 -36.342501 -1.546023 -3.988806 19.154861 9.513405 -2.807963 14.106943 0.795457 1.831563 -1.998426 -0.467488 -9.218514 9.465590 0.867316 -1.023813 9.826520 -101.342113 -5.879215 12.049923 30.993288 -36.153500 -7.192939 2.630979 1.929646 8.102179 5.845739 32.501107 0.638418 91.020137 14.337303 12.506689 -21.921844 27.238046 -1.583144 -3.073435 -0.021621 -2.793326 -23.491326 15.489607 -4.530231 
0.092047 15.667918 6.746695 -3.727235 2.232179 16.093177 -12.833640 -15.779579 -41.887068 13.278750 19.148240 68.310231 1.241181 -5.022541 -11.774353 -1.448609 3.397911 4.670813 28.089469 10.637609 -25.755051 -8.482841 -13.598513 45.012553 -3.242719 2.807197 -36.290491 -1.398051 -3.861283 18.724434 9.454760 -2.499596 14.100450 0.987022 1.782375 -1.908643 -0.580063 -9.024982 9.304566 0.807578 -1.062435 9.841030 -101.736614 -5.552529 11.591001 29.882856 -35.205955 -6.222800 2.615971 2.214140 8.736775 5.534953 32.674512 0.526702 90.756589 15.299734 13.324455 -22.048033 27.233263 -1.675298 -3.203131 0.244983 -3.114483 -23.451644 14.992911 -4.591680 
0.097756 15.658505 7.565752 -3.502986 2.491996 15.983323 -12.200070 -16.375380 -43.646229 12.991067 18.869727 68.078122 1.858528 -4.761692 -13.319615 -1.589627 3.408119 4.287388 28.316631 9.456685 -22.650181 -8.228926 -13.736856 44.852256 -3.164533 1.973410 -35.715333 -1.597676 -3.642729 18.178307 9.187054 -2.186894 13.774679 1.244418 1.800523 -1.739741 -0.781843 -8.787390 9.110832 0.855244 -1.165647 9.833889 -101.915489 -4.911042 11.048949 28.785488 -34.238505 -5.324741 2.675805 2.429382 9.236855 5.361603 32.771188 0.610970 90.524737 16.271521 14.148632 -22.348053 27.578342 -1.935419 -3.285682 0.414520 -3.656127 -23.222247 14.543416 -4.735453 
0.095539 15.659201 8.427901 -3.171389 2.415042 16.002924 -11.698827 -16.931278 -45.103333 12.208110 18.553370 66.512024 2.321235 -4.316710 -14.574757 -1.517287 3.159425 3.580811 28.430694 8.270918 -19.266787 -7.950712 -13.709910 44.039472 -2.951507 1.095615 -34.148929 -1.344494 -3.666419 17.605853 8.566623 -1.631746 13.183093 1.513247 1.887124 -1.561373 -0.836772 -8.698131 8.886916 0.836856 -1.177836 9.937306 -101.892494 -4.057533 11.066867 28.049397 -33.463963 -4.514250 2.627500 2.389926 9.708014 5.063054 32.973206 0.649301 90.312359 16.935648 15.035476 -22.546748 28.096830 -2.294476 -3.527324 0.947677 -4.406325 -23.033108 14.431060 -4.771091 
0.107338 15.661300 9.325345 -2.624408 2.428092 16.257793 -11.431815 -17.726748 -46.268641 11.134264 18.158236 64.159075 2.895408 -3.803455 -15.793947 -1.643259 3.052597 3.117280 28.341716 7.024908 -16.094313 -7.784846 -13.443451 43.094559 -2.330759 -0.291746 -31.571282 -1.381879 -3.527272 17.080611 7.639896 -1.088061 12.148735 1.895939 2.017163 -1.292718 -1.005381 -8.546020 8.705775 0.780351 -1.276637 10.072463 -101.653586 -2.971675 10.898608 27.159036 -33.089010 -3.608592 2.673707 2.378449 9.929660 4.744431 33.330899 0.750129 90.024138 17.403034 15.855842 -22.895351 28.896601 -2.803249 -3.505552 1.149052 -5.313735 -22.723151 14.290345 -5.013131 
0.118840 15.667965 10.278122 -1.949892 2.075276 16.669842 -11.139644 -18.345354 -47.522041 9.763574 17.547750 60.618809 3.027041 -2.961745 -16.574844 -1.556820 2.834818 2.472461 27.953438 5.746059 -12.804473 -7.569594 -13.068031 41.675365 -1.569968 -1.786648 -27.611366 -1.121605 -3.828108 16.655111 6.232610 -0.221746 10.842537 2.285638 2.279222 -1.073691 -0.997409 -8.640143 8.548340 0.796743 -1.423356 10.213222 -101.316879 -1.676031 10.976432 26.647565 -32.836135 -2.818465 2.505391 2.170576 10.217016 4.680461 33.355327 1.035275 89.841117 17.500206 16.594044 -23.323408 29.787708 -3.459265 -3.686404 1.593784 -6.364681 -22.508567 14.383812 -5.173034 
